<svg>

<symbol id="facebook" width="62" height="62" viewBox="0 0 62 62" fill="none" xmlns="http://www.w3.org/2000/svg">
  <circle cx="31" cy="31" r="30" stroke="white" stroke-opacity="0.2"/>
  <path d="M28.8516 41.9839V33.0386H25.8438V29.4839H28.8516V26.6714C28.8516 25.187 29.2682 24.0412 30.1016 23.2339C30.9349 22.4006 32.0417 21.9839 33.4219 21.9839C34.5417 21.9839 35.4531 22.036 36.1562 22.1401V25.3042H34.2812C33.5781 25.3042 33.0964 25.4604 32.8359 25.7729C32.6276 26.0334 32.5234 26.45 32.5234 27.0229V29.4839H35.8438L35.375 33.0386H32.5234V41.9839H28.8516Z" fill="white"/>
</symbol>

<symbol id="twitter" width="62" height="62" viewBox="0 0 62 62" fill="none" xmlns="http://www.w3.org/2000/svg">
  <circle cx="31" cy="31" r="30" stroke="white" stroke-opacity="0.2"/>
  <path d="M38.9297 27.9214C38.9557 28.0256 38.9688 28.1948 38.9688 28.4292C38.9688 30.3042 38.513 32.1141 37.6016 33.8589C36.6641 35.7078 35.349 37.1792 33.6562 38.2729C31.8073 39.4969 29.6849 40.1089 27.2891 40.1089C24.9974 40.1089 22.901 39.4969 21 38.2729C21.2865 38.299 21.612 38.312 21.9766 38.312C23.8776 38.312 25.5833 37.7261 27.0938 36.5542C26.1823 36.5542 25.375 36.2938 24.6719 35.7729C23.9948 35.2261 23.526 34.549 23.2656 33.7417C23.526 33.7677 23.7734 33.7808 24.0078 33.7808C24.3724 33.7808 24.737 33.7417 25.1016 33.6636C24.1641 33.4552 23.3828 32.9735 22.7578 32.2183C22.1328 31.4631 21.8203 30.6037 21.8203 29.6401V29.562C22.3932 29.9006 23.0052 30.0828 23.6562 30.1089C23.1094 29.7183 22.6667 29.2235 22.3281 28.6245C21.9896 28.0256 21.8203 27.3745 21.8203 26.6714C21.8203 25.9422 22.0156 25.2521 22.4062 24.6011C23.4219 25.8771 24.6589 26.8927 26.1172 27.6479C27.6016 28.4032 29.1771 28.8198 30.8438 28.8979C30.7917 28.5854 30.7656 28.2729 30.7656 27.9604C30.7656 27.2313 30.9479 26.5542 31.3125 25.9292C31.6771 25.2782 32.1719 24.7703 32.7969 24.4058C33.4219 24.0412 34.099 23.8589 34.8281 23.8589C35.4271 23.8589 35.974 23.9761 36.4688 24.2104C36.9896 24.4448 37.4453 24.7573 37.8359 25.1479C38.7734 24.9657 39.6458 24.6401 40.4531 24.1714C40.1406 25.1349 39.5417 25.8901 38.6562 26.437C39.4375 26.3328 40.2188 26.1115 41 25.7729C40.4271 26.6063 39.737 27.3224 38.9297 27.9214Z" fill="white"/>
</symbol>

<symbol id="instagram" width="62" height="62" viewBox="0 0 62 62" fill="none" xmlns="http://www.w3.org/2000/svg">
  <circle cx="31" cy="31" r="30" stroke="white" stroke-opacity="0.2"/>
</symbol>

<symbol id="down" width="62" height="62" viewBox="0 0 62 62" fill="none" xmlns="http://www.w3.org/2000/svg">
  <circle cx="31" cy="31" r="30" stroke="white" stroke-opacity="0.2"/>
</symbol>

<symbol id="adress" width="15" height="16" viewBox="0 0 15 16" fill="none" xmlns="http://www.w3.org/2000/svg">
  <path d="M7.2954 1.3335C4.61373 1.3335 2.4318 3.72616 2.4318 6.6635C2.41417 10.9602 7.11058 14.5228 7.2954 14.6668C7.2954 14.6668 12.1766 10.9602 12.159 6.66683C12.159 3.72616 9.97707 1.3335 7.2954 1.3335ZM7.2954 9.3335C5.95183 9.3335 4.8636 8.14016 4.8636 6.66683C4.8636 5.1935 5.95183 4.00016 7.2954 4.00016C8.63897 4.00016 9.7272 5.1935 9.7272 6.66683C9.7272 8.14016 8.63897 9.3335 7.2954 9.3335Z" fill="#E8C300"/>
</symbol>

<symbol id="phone" width="10" height="11" viewBox="0 0 10 11" fill="none" xmlns="http://www.w3.org/2000/svg">
  <g clip-path="url(#clip0_18130_2)">
  <path d="M8.99236 9.14688L7.70664 10.6853C7.51685 10.9201 7.26529 10.9996 7.0203 11C5.93685 10.9608 4.91274 10.3189 4.07188 9.65969C2.69167 8.4485 1.42526 6.94668 0.630445 5.13179C0.325604 4.37075 -0.0320839 3.39971 0.00209048 2.55025C0.00513783 2.2307 0.0765264 1.91708 0.263099 1.7111L1.54881 0.161011C1.81579 -0.112916 2.07398 -0.0182063 2.24483 0.300867L3.27918 2.6668C3.38805 2.94709 3.3256 3.24741 3.16317 3.44769L2.68949 4.01877C2.66025 4.06709 2.64163 4.12209 2.64116 4.18195C2.8228 5.03007 3.37307 5.81177 3.85919 6.34974C4.3453 6.88771 4.86782 7.61655 5.54608 7.7891C5.62991 7.8173 5.7326 7.82721 5.79259 7.75996L6.34362 7.08398C6.53357 6.91032 6.80783 6.82543 7.01062 6.96743H7.02029L8.88601 8.29608C9.1599 8.50317 9.18846 8.90339 8.99236 9.14688Z" fill="#E8C300"/>
  </g>
  <defs>
  <clipPath id="clip0_18130_2">
  <rect width="9.11925" height="11" fill="white"/>
  </clipPath>
  </defs>
</symbol>

<symbol id="email" width="15" height="16" viewBox="0 0 15 16" fill="none" xmlns="http://www.w3.org/2000/svg">
  <path d="M13.1033 2.66679C13.0481 2.66055 12.9924 2.66055 12.9372 2.66679H1.58877C1.51604 2.66802 1.44379 2.67998 1.37396 2.70235L7.23055 9.0979L13.1033 2.66679Z" fill="#E8C300"/>
  <path d="M13.7032 3.28418L7.80202 9.72862C7.65015 9.89418 7.4447 9.98711 7.23055 9.98711C7.0164 9.98711 6.81095 9.89418 6.65908 9.72862L0.810598 3.33307C0.792618 3.40553 0.783085 3.4802 0.782227 3.55529V12.4442C0.782227 12.6799 0.867629 12.906 1.01965 13.0727C1.17166 13.2394 1.37784 13.3331 1.59283 13.3331H12.9412C13.1562 13.3331 13.3624 13.2394 13.5144 13.0727C13.6664 12.906 13.7518 12.6799 13.7518 12.4442V3.55529C13.7486 3.46269 13.7322 3.37122 13.7032 3.28418ZM2.14809 12.4442H1.58472V11.8086L4.53125 8.60418L5.10273 9.23085L2.14809 12.4442ZM12.9331 12.4442H12.3657L9.41107 9.23085L9.98254 8.60418L12.9291 11.8086L12.9331 12.4442Z" fill="#E8C300"/>
</symbol>


</svg>